<svg width="64" height="64" viewBox="0 0 64 64" fill="none" xmlns="http://www.w3.org/2000/svg">
<g clip-path="url(#clip0_70_2678)">
<mask id="mask0_70_2678" style="mask-type:alpha" maskUnits="userSpaceOnUse" x="8" y="3" width="47" height="58">
<path d="M39.6246 21.6448C39.4793 19.8287 38.7983 18.4122 37.5815 17.3952C36.3829 16.3782 34.5578 15.8697 32.1061 15.8697C30.5443 15.8697 29.264 16.0604 28.2651 16.4417C27.2845 16.805 26.558 17.3044 26.0859 17.94C25.6137 18.5756 25.3685 19.302 25.3504 20.1193C25.314 20.7912 25.4321 21.3996 25.7045 21.9444C25.9951 22.4711 26.4491 22.9523 27.0665 23.3882C27.684 23.8059 28.474 24.1873 29.4365 24.5323C30.399 24.8774 31.5431 25.1861 32.8689 25.4585L37.4453 26.4392C40.5326 27.0929 43.175 27.9556 45.3724 29.0271C47.5699 30.0985 49.3678 31.3607 50.7662 32.8135C52.1645 34.2482 53.1906 35.8645 53.8444 37.6624C54.5163 39.4603 54.8614 41.4217 54.8795 43.5465C54.8614 47.2149 53.9443 50.3204 52.1282 52.8629C50.3121 55.4054 47.7152 57.3395 44.3373 58.6652C40.9776 59.9909 36.9368 60.6538 32.2151 60.6538C27.3662 60.6538 23.1348 59.9364 19.5208 58.5017C15.925 57.0671 13.1283 54.8605 11.1306 51.8822C9.15108 48.8857 8.15225 45.0538 8.13409 40.3865H22.5173C22.6081 42.0936 23.0349 43.5283 23.7976 44.6906C24.5604 45.8529 25.6318 46.7337 27.0121 47.333C28.4104 47.9323 30.0721 48.2319 31.9971 48.2319C33.6134 48.2319 34.9664 48.0321 36.056 47.6326C37.1457 47.2331 37.972 46.6792 38.535 45.9709C39.098 45.2627 39.3885 44.4545 39.4067 43.5465C39.3885 42.6929 39.107 41.9483 38.5622 41.3127C38.0356 40.6589 37.1638 40.0778 35.9471 39.5693C34.7303 39.0426 33.0868 38.5523 31.0165 38.0983L25.4593 36.8997C20.5196 35.8282 16.6242 34.0394 13.773 31.5332C10.9399 29.0089 9.53246 25.5675 9.55062 21.2089C9.53246 17.6676 10.4768 14.5712 12.3837 11.9198C14.3087 9.25014 16.9692 7.17074 20.3653 5.68157C23.7795 4.1924 27.6931 3.44782 32.1061 3.44782C36.6099 3.44782 40.5054 4.20148 43.7925 5.70882C47.0795 7.21615 49.613 9.34094 51.3927 12.0832C53.1906 14.8073 54.0986 17.9945 54.1168 21.6448H39.6246Z" fill="#D9D9D9"/>
</mask>
<g mask="url(#mask0_70_2678)">
<path d="M32.0993 1.58185C37.515 1.58185 42.8371 2.99316 47.5412 5.67667C52.2452 8.36018 56.1688 12.2232 58.925 16.885C61.6812 21.5468 63.1751 26.8464 63.2592 32.2614C63.3433 37.6764 62.0148 43.0199 59.4047 47.7651L32.0993 32.7455L32.0993 1.58185Z" fill="#0A91CC"/>
<path d="M32.0993 1.58185C26.6789 1.58185 21.3523 2.99563 16.6453 5.68358C11.9384 8.37154 8.01389 12.2407 5.25941 16.9091C2.50494 21.5774 1.01572 26.8835 0.938808 32.3033C0.861897 37.7231 2.19995 43.0693 4.82085 47.8139L32.0993 32.7455L32.0993 1.58185Z" fill="#1EA5E0"/>
<path d="M59.4045 47.7655C56.7176 52.65 52.7696 56.7244 47.9722 59.5638C43.1747 62.4033 37.7034 63.9039 32.1286 63.9091C26.5538 63.9143 21.0797 62.4241 16.2769 59.5936C11.4741 56.7632 7.51851 52.6963 4.82244 47.8168L32.0993 32.7455L59.4045 47.7655Z" fill="#007DB8"/>
</g>
</g>
<defs>
<clipPath id="clip0_70_2678">
<rect width="64" height="64" fill="white"/>
</clipPath>
</defs>
</svg>
