<svg width="80" height="80" viewBox="0 0 80 80" fill="none" xmlns="http://www.w3.org/2000/svg">
<rect width="80" height="80" rx="8" fill="#1EA5E0"/>
<path d="M38 10.1347C38 9.55631 37.5101 9.09691 36.9347 9.15631C34.3646 9.42171 32.5132 9.96171 31.6141 10.2703C31.2371 10.3996 31 10.758 31 11.1566V12.9718C31 13.1883 30.8605 13.3797 30.6557 13.4498C30.012 13.6703 29.385 13.916 28.7745 14.1867C25.5053 15.6445 22.9441 17.6801 21.0909 20.2934C19.2553 22.8889 18.3462 25.9201 18.3637 29.3867C18.3462 33.6534 19.7011 37.0223 22.4283 39.4934C24.2014 41.0782 26.3938 42.3699 29.0058 43.3687C29.2751 43.4716 29.5759 43.4477 29.8286 43.3088L37.4817 39.1014C37.8014 38.9257 38 38.5898 38 38.2251V33.3328C38 33.0213 37.7996 32.7467 37.507 32.6401V32.6401C36.5804 32.3023 35.8199 31.9289 35.2255 31.5201C34.6311 31.0934 34.1941 30.6223 33.9143 30.1067C33.6521 29.5734 33.5385 28.9778 33.5734 28.3201C33.5909 27.5201 33.8269 26.8089 34.2815 26.1867C34.736 25.5645 35.4353 25.0756 36.3794 24.7201C36.6221 24.6258 36.8821 24.5435 37.1593 24.473C37.6376 24.3515 38 23.9396 38 23.446L38 10.1347Z" fill="white"/>
<path d="M61.1171 49.3446C61.4667 49.5368 61.8862 49.2625 61.8325 48.8672C61.6716 47.6839 61.3952 46.5593 61.0035 45.4934C60.3741 43.7334 59.3864 42.1512 58.0402 40.7467C56.6941 39.3245 54.9633 38.0889 52.8479 37.0401C50.7325 35.9912 48.1888 35.1467 45.2168 34.5067L43.2129 34.0701C42.5895 33.9342 42 34.4091 42 35.0471L42 38.2435C42 38.6083 42.1986 38.9441 42.5182 39.1198L61.1171 49.3446Z" fill="white"/>
<path d="M42 23.424C42 23.9206 42.3665 24.3349 42.8494 24.4509C43.8704 24.6964 44.7033 25.0972 45.3479 25.6534C46.3134 26.474 46.9285 27.6873 47.1932 29.084C47.2904 29.5967 47.7172 30.0001 48.2391 30.0001H60.2608C60.815 30.0001 61.2661 29.5491 61.2379 28.9956C61.0756 25.8082 60.2107 22.8683 58.6434 20.4534C56.9301 17.7689 54.4913 15.6889 51.3269 14.2134C50.6894 13.9161 50.0282 13.6488 49.3431 13.4114C49.139 13.3407 49 13.1496 49 12.9335V11.1566C49 10.758 48.7629 10.3996 48.3859 10.2703C47.4868 9.96171 45.6354 9.42171 43.0652 9.15631C42.4899 9.09691 42 9.55631 42 10.1347L42 23.424Z" fill="white"/>
<path d="M18.4616 54.1223C18.0605 54.3429 17.8577 54.8085 17.9901 55.2467C18.4567 56.7908 19.0882 58.1875 19.8846 59.4134C21.8076 62.3289 24.5 64.4889 27.9615 65.8934C28.815 66.2379 29.7042 66.5402 30.6293 66.8002C30.8474 66.8615 30.9999 67.0593 30.9999 67.2859V68.8435C30.9999 69.2421 31.237 69.6005 31.614 69.7298C32.8389 70.1502 35.8311 71 40 71C44.1689 71 47.161 70.1502 48.3859 69.7298C48.7629 69.6005 49 69.2421 49 68.8435V67.3723C49 67.1447 49.1539 66.9463 49.3733 66.8857C50.2381 66.6467 51.0642 66.3692 51.8514 66.0534C55.1031 64.7556 57.6031 62.8623 59.3514 60.3734C60.463 58.7907 61.2248 56.9852 61.6367 54.9569C61.7207 54.543 61.5154 54.1282 61.1453 53.9247L40.4649 42.5556C40.1649 42.3907 39.8014 42.3907 39.5014 42.5556L36.1584 44.3935C35.7538 44.6159 35.8411 45.2211 36.2922 45.32L39.0279 45.92C41.0209 46.3645 42.6031 46.8445 43.7744 47.36C44.9458 47.8578 45.7849 48.4267 46.2919 49.0667C46.8164 49.6889 47.0874 50.4178 47.1049 51.2534C47.0874 52.1423 46.8076 52.9334 46.2657 53.6267C45.7237 54.32 44.9283 54.8623 43.8793 55.2534C42.8304 55.6445 41.5279 55.84 39.972 55.84C38.1188 55.84 36.5192 55.5467 35.173 54.96C33.8444 54.3734 32.8129 53.5111 32.0786 52.3734C31.4848 51.4532 31.1025 50.254 30.9318 48.945C30.8629 48.4175 30.429 48 29.897 48H29.5981L18.4616 54.1223Z" fill="white"/>
</svg>
